<svg width="32" height="32" viewBox="0 0 32 32" fill="none" xmlns="http://www.w3.org/2000/svg">
<path d="M24.0008 11.4285H26.2866C26.5897 11.4285 26.8803 11.5489 27.0947 11.7632C27.309 11.9775 27.4294 12.2682 27.4294 12.5713V29.7142C27.4294 30.0173 27.309 30.308 27.0947 30.5223C26.8803 30.7366 26.5897 30.857 26.2866 30.857H5.71512C5.41202 30.857 5.12133 30.7366 4.907 30.5223C4.69267 30.308 4.57227 30.0173 4.57227 29.7142V12.5713C4.57227 12.2682 4.69267 11.9775 4.907 11.7632C5.12133 11.5489 5.41202 11.4285 5.71512 11.4285H8.00084" stroke="#000001" stroke-linecap="round" stroke-linejoin="round"/>
<path d="M16 17.1428V1.14282" stroke="#000001" stroke-linecap="round" stroke-linejoin="round"/>
<path d="M11.4297 5.71425L16.0011 1.14282L20.5725 5.71425" stroke="#000001" stroke-linecap="round" stroke-linejoin="round"/>
</svg>
